<?xml version="1.0" encoding="UTF-8" standalone="no"?>
<svg
   viewBox="0 0 512 512"
   style="height: 512px; width: 512px;"
   version="1.1"
   id="svg1"
   sodipodi:docname="internet_fall.svg"
   inkscape:version="1.3 (0e150ed, 2023-07-21)"
   xmlns:inkscape="http://www.inkscape.org/namespaces/inkscape"
   xmlns:sodipodi="http://sodipodi.sourceforge.net/DTD/sodipodi-0.dtd"
   xmlns="http://www.w3.org/2000/svg"
   xmlns:svg="http://www.w3.org/2000/svg">
  <defs
     id="defs1" />
  <sodipodi:namedview
     id="namedview1"
     pagecolor="#ffffff"
     bordercolor="#000000"
     borderopacity="0.25"
     inkscape:showpageshadow="2"
     inkscape:pageopacity="0.0"
     inkscape:pagecheckerboard="0"
     inkscape:deskcolor="#d1d1d1"
     showgrid="false"
     inkscape:zoom="0.4609375"
     inkscape:cx="254.91525"
     inkscape:cy="254.91525"
     inkscape:window-width="1744"
     inkscape:window-height="1040"
     inkscape:window-x="0"
     inkscape:window-y="25"
     inkscape:window-maximized="0"
     inkscape:current-layer="svg1" />
  <g
     class=""
     transform="rotate(180,256,255.41305)"
     id="g1"
     style="fill:#ecc300;fill-opacity:0.91633469">
    <path
       d="m 256,23 c -71.69,0 -130,58.31 -130,130 0,71.69 58.31,130 130,130 71.69,0 130,-58.31 130,-130 C 386,81.31 327.69,23 256,23 Z m -8.33,31.127 -11.774,35.246 52.145,-5.463 -5.186,-17.457 14.624,4.049 v 19.367 l 22.843,1.49 -4.468,-17.38 12.007,-6.954 C 352.41,87.553 368,118.417 368,153 c 0,16.668 -3.625,32.471 -10.125,46.672 l -26.13,4.422 v 31.478 a 112.138,112.138 0 0 1 -16.099,12.29 l -11.216,-17.448 -21.852,5.96 6.14,23.786 A 112.353,112.353 0 0 1 256,265 c -31.013,0 -59.037,-12.535 -79.297,-32.826 l 19.96,-2.752 13.41,-26.322 -42.712,-21.354 30.295,-25.826 -26.32,-21.85 -26.893,8.963 c 3.112,-35.448 22.653,-66.103 50.994,-84.318 l 5.696,45.556 z m 38.88,64.217 -36.17,23.176 31.606,28.093 22.827,-6.672 -2.108,27.391 41.79,-10.535 -15.804,-35.818 -25.283,0.351 22.475,-19.314 -39.332,-6.672 z m -37.573,40.383 -19.315,8.427 13.695,10.184 z m -45.362,3.154 -13.408,15.89 37.147,26.108 z m 59.76,8.785 -13.695,25.637 33.01,22.474 -11.59,-16.506 14.398,-17.207 z M 60.17,198.061 c -8.818,-0.137 -17.843,11.093 -17.895,39.882 -0.078,44.153 -4.356,56.616 16.077,106.551 14.983,36.618 21.702,64.763 69.648,87.506 5.68,20.022 3.413,24.73 -0.44,41.84 -3.596,15.974 33.423,18.91 60.534,5.453 29.091,-15.868 26.65,-59.557 21.453,-89.184 -6.044,-34.454 -25.06,-41.615 -41.543,-56.332 -17.115,-24.475 -21.098,-68.813 -48.856,-86.699 -5.797,-3.735 -35.37,-7.527 5.262,93.942 C 70.839,327.752 80.597,266.247 76.723,220.71 75.569,207.149 67.95,198.18 60.17,198.06 Z m 391.66,0 c -7.78,0.12 -15.399,9.088 -16.553,22.65 -3.874,45.536 5.884,107.041 -47.687,120.309 40.633,-101.47 11.059,-97.677 5.262,-93.942 -27.758,17.886 -31.74,62.224 -48.856,86.7 -16.482,14.716 -35.5,21.877 -41.543,56.331 -5.197,29.627 -7.638,73.316 21.453,89.184 27.111,13.456 64.13,10.521 60.533,-5.453 C 380.587,456.73 378.32,452.022 384,432 c 47.946,-22.743 54.665,-50.888 69.648,-87.506 20.433,-49.935 16.155,-62.398 16.077,-106.55 -0.052,-28.79 -9.077,-40.02 -17.895,-39.883 z"
       fill="#8871f2"
       fill-opacity="1"
       id="path1"
       style="fill:#ecc300;fill-opacity:0.91633469" />
  </g>
</svg>
