<svg xmlns="http://www.w3.org/2000/svg" version="1.1" xmlns:xlink="http://www.w3.org/1999/xlink" xmlns:svgjs="http://svgjs.com/svgjs" width="100" height="100" x="0" y="0" viewBox="0 0 512 512" style="enable-background:new 0 0 512 512" xml:space="preserve" class=""><g><circle cx="256" cy="256" r="256" style="" fill="#f2cf61" data-original="#f2cf61" class=""></circle><path d="M435.792 435.66c-.264-.684-.552-1.356-.824-2.036-.256-.668-.532-1.328-.8-1.992-.276-.72-.576-1.416-.856-2.124-.264-.688-.556-1.364-.828-2.048-.264-.688-.556-1.368-.828-2.048-.264-.688-.556-1.368-.828-2.052-.264-.688-.556-1.364-.828-2.048-.264-.688-.556-1.364-.828-2.052-.264-.688-.556-1.36-.828-2.048-.264-.688-.552-1.364-.828-2.048-.264-.684-.548-1.356-.82-2.036-.264-.7-.56-1.38-.836-2.068-.264-.688-.552-1.364-.828-2.048-.264-.688-.552-1.364-.828-2.048-.264-.688-.552-1.368-.828-2.048-.264-.688-.552-1.368-.828-2.052-.252-.66-.532-1.316-.796-1.972-.268-.72-.572-1.416-.852-2.124-.264-.688-.556-1.368-.828-2.048-.264-.688-.552-1.36-.828-2.04-.26-.696-.556-1.376-.828-2.064-.264-.688-.556-1.368-.828-2.048-.264-.688-.556-1.368-.828-2.052-.264-.688-.556-1.364-.828-2.048-.264-.688-.556-1.364-.828-2.052-.264-.688-.556-1.36-.828-2.048-.264-.688-.556-1.364-.828-2.048-.264-.688-.556-1.364-.828-2.048-.264-.688-.548-1.36-.824-2.04-.264-.696-.56-1.376-.832-2.064-.264-.688-.556-1.364-.828-2.048-.264-.688-.556-1.368-.828-2.048-.256-.664-.532-1.32-.796-1.976-.272-.72-.572-1.416-.856-2.124-.26-.688-.552-1.364-.828-2.048-.26-.688-.552-1.368-.828-2.048-.26-.688-.552-1.368-.828-2.052-.26-.688-.552-1.364-.828-2.048-.26-.684-.548-1.356-.82-2.036-.268-.696-.56-1.376-.836-2.068-.26-.688-.552-1.364-.828-2.048-.26-.688-.552-1.364-.828-2.052-.26-.688-.552-1.36-.828-2.048-.26-.688-.552-1.364-.828-2.048-.26-.688-.552-1.364-.828-2.048-.26-.688-.552-1.368-.824-2.048-.264-.688-.556-1.368-.828-2.052-.252-.66-.532-1.308-.796-1.956-.272-.724-.572-1.424-.86-2.14-.26-.688-.552-1.368-.828-2.048-.26-.692-.552-1.368-.828-2.052-.26-.688-.552-1.364-.828-2.048-.26-.692-.552-1.364-.828-2.052-.26-.688-.552-1.36-.828-2.048-.26-.688-.552-1.364-.828-2.048-.26-.688-.548-1.364-.828-2.048-.26-.688-.548-1.368-.828-2.048-.26-.688-.548-1.36-.82-2.04-.264-.696-.556-1.376-.836-2.064-.26-.688-.548-1.368-.824-2.048-.264-.688-.552-1.368-.828-2.052-.264-.688-.552-1.364-.828-2.048-.252-.664-.536-1.316-.796-1.976-.276-.712-.576-1.416-.856-2.124-.264-.688-.556-1.364-.828-2.048-.264-.688-.556-1.364-.828-2.052-.264-.68-.548-1.352-.82-2.032-.264-.696-.564-1.38-.836-2.068-.264-.688-.556-1.364-.828-2.048-.264-.692-.552-1.364-.828-2.052-.264-.688-.552-1.36-.828-2.048-.264-.688-.552-1.364-.828-2.048-.264-.688-.552-1.364-.828-2.048-.264-.688-.552-1.368-.828-2.048-.264-.692-.552-1.368-.828-2.052-.264-.688-.552-1.364-.828-2.048-.264-.684-.548-1.356-.82-2.036-.256-.672-.536-1.328-.804-1.992-.268-.72-.572-1.416-.852-2.124-.264-.688-.556-1.368-.828-2.048-.264-.688-.556-1.368-.828-2.048-.264-.692-.556-1.368-.828-2.052-.264-.688-.556-1.364-.828-2.048-.264-.692-.556-1.364-.828-2.052-7.284-18.872-18.648-35.54-29.164-48.548-.064-.148-.14-.288-.212-.432-.264-.684-.528-1.376-.828-2.048-.264-.684-.528-1.38-.828-2.048-.264-.684-.528-1.376-.828-2.048-.264-.684-.524-1.38-.828-2.048-.264-.684-.524-1.372-.828-2.04-.264-.692-.524-1.384-.828-2.06-.26-.676-.516-1.356-.812-2.016-.268-.7-.532-1.4-.836-2.084-.268-.684-.532-1.38-.828-2.048-.268-.684-.532-1.376-.828-2.048-.268-.684-.532-1.38-.828-2.048-.268-.684-.532-1.376-.828-2.048-.268-.684-.532-1.38-.828-2.048-.268-.684-.532-1.376-.828-2.048-.268-.684-.524-1.372-.828-2.04-.268-.688-.532-1.384-.828-2.06a47.617 47.617 0 0 0-.828-2.048c-.264-.684-.528-1.38-.828-2.048-.264-.684-.528-1.376-.828-2.048-.264-.684-.528-1.38-.828-2.048-.264-.684-.528-1.376-.828-2.048-.264-.676-.516-1.356-.812-2.016-.272-.7-.536-1.4-.84-2.084-.268-.684-.528-1.38-.828-2.048-.268-.684-.528-1.376-.828-2.048-.268-.684-.524-1.372-.828-2.04-.268-.688-.524-1.384-.828-2.06-.268-.684-.528-1.376-.824-2.048-.272-.684-.532-1.38-.828-2.048-.272-.684-.532-1.376-.828-2.048-.268-.684-.532-1.38-.828-2.048-.268-.684-.532-1.376-.828-2.048-.268-.684-.532-1.38-.828-2.048-.268-.684-.532-1.376-.828-2.048-.268-.684-.532-1.38-.828-2.048-.268-.684-.524-1.372-.828-2.04-.264-.68-.516-1.364-.812-2.024-.272-.696-.54-1.4-.844-2.084-.264-.684-.524-1.376-.828-2.048-.264-.684-.524-1.38-.828-2.048-.264-.684-.524-1.376-.828-2.048-.264-.684-.524-1.38-.824-2.048-.268-.684-.528-1.376-.828-2.048-6.5-16.604-23.112-28.448-42.64-28.448-25.18 0-43.628 19.752-45.596 43.884-.508 6.208 4.228 46.2 5.432 65.252-22.784 21.336-61.76 74.416-59.652 124.264l.68.808c-17.384 4.688-42.212 29.084-34.536 46.884.16.368.356.716.524 1.08.116.32.168.656.304.972.16.372.356.716.524 1.084.116.32.168.656.304.968.16.372.356.72.524 1.084.112.32.168.656.304.972.16.368.356.716.524 1.08.112.32.168.656.304.972.16.372.356.716.524 1.084.112.32.168.656.304.968.16.368.356.72.524 1.084.112.32.168.656.304.972.152.36.348.7.512 1.056.116.328.172.668.312.996.156.364.352.716.524 1.076.116.328.168.664.304.976.156.368.356.72.524 1.084.116.32.168.656.304.972.156.368.356.716.524 1.08.116.32.168.656.304.972.156.368.352.716.524 1.084.116.32.168.656.304.968.156.368.352.72.524 1.084.116.32.164.656.304.972.156.368.352.716.524 1.08.116.32.164.656.304.972.156.368.352.716.524 1.084.116.32.164.656.304.968.156.368.352.72.524 1.084.116.316.164.652.304.972.156.368.352.716.524 1.08.116.32.164.656.304.972.156.368.352.716.524 1.084.112.32.164.656.304.968.156.368.352.712.524 1.08.112.32.164.656.304.976.156.368.352.716.524 1.08.112.32.164.656.304.972.156.368.352.716.524 1.084.112.316.164.652.304.968.156.368.352.72.524 1.08.112.32.164.656.3.976.156.36.348.696.512 1.056.12.328.172.668.312.996.16.368.36.716.524 1.08.116.32.172.656.304.972.16.368.36.72.524 1.08.116.32.172.656.304.976.16.368.356.712.524 1.08.116.32.172.656.304.972.16.368.356.716.524 1.08.116.32.168.656.304.972.16.368.356.72.524 1.08.116.32.168.656.304.976.16.368.356.712.524 1.08.116.32.168.656.304.968.156.368.352.716.524 1.08.116.324.168.66.304.976.16.368.356.716.524 1.08.116.32.168.656.304.976.16.368.356.712.524 1.08.116.32.168.656.304.968.16.372.356.72.524 1.084.116.32.168.656.304.972.16.368.356.716.524 1.08.116.32.168.656.304.972.16.372.356.716.524 1.084.116.32.168.656.304.968.16.372.356.72.524 1.084.116.32.168.656.304.972.16.368.356.716.524 1.08.116.32.168.656.304.972.156.364.348.7.512 1.06.12.328.172.664.308.992.164.368.36.72.528 1.084.112.32.168.656.3.972.156.364.356.716.528 1.076.112.324.168.66.3.976.164.372.36.716.528 1.084.112.32.168.656.3.968.164.368.36.72.528 1.084.112.32.168.656.3.972.164.368.36.716.524 1.08.116.32.172.656.304.972.164.368.36.716.524 1.084.116.32.172.656.304.968.164.368.36.72.524 1.084.116.32.172.656.304.972.164.368.36.716.524 1.08.116.32.172.656.304.972.164.368.36.716.524 1.084.116.32.172.656.304.968.164.368.36.72.524 1.084.116.316.172.652.304.972.164.368.36.716.524 1.08.116.32.172.656.304.972.156.364.352.712.524 1.076.116.328.172.664.304.976.164.368.36.72.524 1.08.116.32.172.656.304.976.16.368.36.716.524 1.08.116.32.172.656.304.972.156.36.352.7.516 1.056.116.328.172.668.308.996.16.368.356.72.528 1.08.112.32.164.656.3.976.16.368.356.716.528 1.08.112.32.164.656.3.972.16.368.356.716.528 1.08.112.32.164.656.3.972.16.368.356.72.524 1.08.116.32.168.656.304.976.16.368.356.712.524 1.08.116.32.168.656.304.972.16.368.356.716.524 1.08.116.32.168.656.304.972.04.092.088.18.132.272C199.124 507.1 226.98 512 256 512c70.444 0 134.244-28.468 180.532-74.516a192.36 192.36 0 0 0-.74-1.824z" style="" fill="#f7f6f6" data-original="#e6c45c" class=""></path><path d="M217.496 401.54c15.828 6.696 56.56 11.204 100.04-4.928l53.26-70.96c19.348-70.692-56.98-134.104-59.408-139.312-2.396-5.192-7.148-44.452-7.148-44.452 0-24.228-20.416-43.884-45.596-43.884s-43.628 19.752-45.596 43.884c-.508 6.208 4.228 46.2 5.432 65.252-22.784 21.336-61.76 74.416-59.652 124.26l58.668 70.14z" style="" fill="#263740" data-original="#263740" class=""></path><path d="M311.4 186.336c-2.4-5.192-7.156-44.452-7.156-44.452 0-24.228-20.416-43.884-45.592-43.884-2.744 0-5.392.276-7.956.724 21.336 3.664 37.56 21.58 37.56 43.164 0 0 4.752 39.26 7.148 44.452 2.42 5.204 78.752 68.62 59.408 139.312l-53.264 70.956c-18.672 6.924-36.812 10.036-52.716 10.812 19.076.952 43.412-1.416 68.716-10.812l53.256-70.956c19.34-70.696-56.988-134.108-59.404-139.316z" style="" fill="#1e2c33" data-original="#1e2c33" class=""></path><path d="M322.184 410.788c-10.168-17.46-8.76-73.616 3.152-86.496 16.704-5.044 59.116-4.084 62.668 18.68 5.58 35.536-41.176 76.696-65.82 67.816z" style="" fill="#ef9e33" data-original="#f5f5f5" class=""></path><path d="M388.004 342.976c-2.668-17.1-27.268-21.9-46.424-21.084 17.412.72 36.116 6.296 38.424 21.084 4.788 30.5-28.964 65.108-54.216 68.7 25.304 4.12 67.532-34.828 62.216-68.7z" style="" fill="#ec8d22" data-original="#e6e6e6" class=""></path><path d="M217.752 404.348c-.672-20.008-27.428-66.26-49.172-72.432-15.468-4.852-52.78 25.896-43.6 47.18 14.328 33.168 76.436 45.112 92.772 25.252z" style="" fill="#ef9e33" data-original="#f5f5f5" class=""></path><path d="M168.58 331.916c-2.252-.708-4.968-.64-7.932.016 21.732 6.252 48.432 52.424 49.104 72.416-4.804 5.844-13.584 8.916-23.928 9.52 13.736.772 25.92-2.216 31.928-9.52-.672-20.012-27.436-66.264-49.172-72.432z" style="" fill="#ec8d22" data-original="#e6e6e6" class=""></path><path d="M239.644 187c3.024-4 12.204-9.972 20.856-13.428 9.5-1.228 19.332 1.428 24.744 3.752 3.588 19.844-8.576 15.176-20.076 34.344-18.192-11.14-23-10.836-25.524-24.668z" style="" fill="#ffd464" data-original="#ffd464" class=""></path></g></svg>
