<svg xmlns="http://www.w3.org/2000/svg" version="1.1" xmlns:xlink="http://www.w3.org/1999/xlink" xmlns:svgjs="http://svgjs.com/svgjs" width="512" height="512" x="0" y="0" viewBox="0 0 19.858 19.858" style="enable-background:new 0 0 512 512" xml:space="preserve" class=""><g><path d="M7.084 16.38h5.688v1.012H7.084zM4.173 17.761l-.291 1.145h12.093l-.29-1.145zM18.983.952H.875A.875.875 0 0 0 0 1.827v13.022c0 .482.392.875.875.875h18.108a.876.876 0 0 0 .875-.875V1.828a.876.876 0 0 0-.875-.876zm-.875 13.02H1.751V2.702h16.357v11.27z" style="" fill="#eafffe" data-original="#030104" class=""></path><path d="M6.696 12.423c.501.016 1.358.324 1.358.324a.878.878 0 0 0 .635-.309c.147-.18-.227-.725-.259-.807-.033-.08-.994-1.332-1.157-1.398-.165-.066-.412.156-.478.32-.065.162-.35-.053-.514-.053s-.393.436-.262.533c.292.27.065.646.065.646s-.075.1-.108.395c-.184.511.474.318.72.349zM9.334 11.732s-.252-.014-.252.18c0 .107-.062.379.092.379h1.472c.061 0 .091-.09.091-.152v-.975s-.685.598-.899.582c-.215-.016-.367-.014-.504-.014zM12.688 10.333c-.225.264-.563.605-.886.549-.32-.059-.177-.736-.478-.736-.302 0-.358.057-.358.283l.015 1.701s-.132.66.265.793c.395.133.595-.139 1.048-.348.452-.205.869-.508 1.075-.621.209-.113.491-.697.228-.773-.265-.076-.542-.049-.579-.217-.038-.172.028-.83-.33-.631z" style="" fill="#eafffe" data-original="#030104" class=""></path><path d="M7.327 9.859c.199.252 1.06 1.375 1.06 1.375s.222.258.402.094c.183-.166-.244-.828-.244-.828-.908-.773-.944-.914-.944-.914-.197-.678.604-1.463.604-1.545.188-.331.372-.908.372-.908s.632.311 1.023.311c0 0 .913.063 1.229-.512.051-.092.141.472.141.636 0 .166.026.363.356.891.33.53.333 1.215.333 1.215 0 .639.306.773.306.773.221 0 .845-.572.845-.572 0-.287-.204-1.829-.866-2.38-.66-.55-.923-.968-.923-.968s.035-.764.005-1.883c-.111-1.058-1.549-1.182-1.549-1.182-.892 0-1.52.822-1.619 1.234-.098.413.445 2.187.346 2.416-.007.229-1.222 1.534-1.225 1.54-.248.347-.334 1.25-.334 1.25.117-.182.682-.043.682-.043zm2.915-5.187c.331 0 .431.446.431.446 0 .149-.015.461-.015.461 0 .019-.167.055-.374.063a.465.465 0 0 0 .045-.149c.022-.163-.029-.274-.112-.285-.082-.011-.164.08-.186.244a.484.484 0 0 0 .009.185 1.14 1.14 0 0 1-.28-.056c-.222-1.027.482-.909.482-.909zm-.13 1.08c.01.006.017.015.027.017l.013-.003c.181.059.344.127.424.186.259.258-.056.603-.104.593-.011-.002-.46.281-.898.278-.398-.002-.781-.292-.978-.324-.238-.101-.144-.214-.094-.298 0 0 .165-.201.404-.366l.003.001.065-.037c.001-.001 0-.005.002-.008.141-.088.303-.158.472-.167.147-.009.418.051.664.128zm-1.561-1.07c.808-.058.651.831.651.831l-.221.12a1.221 1.221 0 0 0-.038-.181c-.028-.102-.186-.243-.275-.217-.089.025-.058.296-.028.397a.294.294 0 0 0 .105.13l-.22.12c-.183-.133-.31-.602-.31-.602.001-.511.336-.598.336-.598z" style="" fill="#eafffe" data-original="#030104" class=""></path></g></svg>